<?xml version="1.0" standalone="no"?>
<!DOCTYPE svg PUBLIC "-//W3C//DTD SVG 20010904//EN"
 "http://www.w3.org/TR/2001/REC-SVG-20010904/DTD/svg10.dtd">
<svg version="1.0" xmlns="http://www.w3.org/2000/svg"
 width="180.000000pt" height="180.000000pt" viewBox="0 0 180.000000 180.000000"
 preserveAspectRatio="xMidYMid meet">
<metadata>
Created by potrace 1.11, written by Peter Selinger 2001-2013
</metadata>
<g transform="translate(0.000000,180.000000) scale(0.100000,-0.100000)"
fill="#000000" stroke="none">
<path d="M0 1300 c0 -434 2 -500 15 -500 8 0 22 11 31 25 18 28 26 75 11 75
-5 0 -4 7 3 15 10 12 10 15 0 15 -7 0 -10 7 -6 15 3 8 0 15 -7 15 -8 1 -7 5 3
13 22 17 23 37 3 37 -14 1 -12 6 11 24 17 15 27 30 23 39 -3 8 0 20 6 26 8 8
5 11 -11 11 -26 0 -29 18 -4 26 48 16 121 64 96 64 -5 0 6 9 24 20 17 11 32
24 32 30 0 6 8 10 18 8 9 -2 16 3 14 10 -1 7 9 12 28 12 19 0 30 5 30 14 0 9
8 12 26 8 21 -4 25 -2 19 9 -7 11 -6 12 6 2 8 -6 24 -10 34 -8 11 2 25 4 30 4
6 1 3 6 -5 11 -13 8 -12 10 3 10 10 0 15 5 12 10 -3 6 3 10 15 10 12 0 18 5
15 10 -3 6 0 10 8 10 17 0 49 34 40 43 -3 4 3 7 15 7 12 0 29 11 38 26 9 14
23 23 30 20 7 -3 19 1 27 8 15 16 65 27 129 28 26 1 46 4 44 7 -2 3 42 6 97 6
56 0 117 3 135 8 25 6 45 4 75 -8 27 -11 43 -13 45 -6 3 8 9 8 23 1 10 -6 19
-8 19 -6 0 3 18 -1 40 -9 43 -15 141 -25 134 -14 -2 4 25 6 61 4 36 -2 65 1
65 6 0 4 6 6 14 3 8 -3 17 -1 20 4 5 9 54 7 87 -3 24 -8 33 -35 11 -35 -18 0
-46 -55 -36 -71 3 -5 -6 -11 -19 -14 -16 -4 -28 -19 -36 -43 -8 -20 -22 -47
-33 -58 -10 -12 -22 -34 -27 -50 -9 -37 -53 -44 -102 -16 -31 17 -39 18 -79 6
-24 -7 -47 -11 -52 -8 -16 10 -41 -14 -54 -51 -7 -21 -11 -42 -8 -47 3 -4 3
-8 -1 -8 -3 0 -10 10 -15 23 -8 21 -9 21 -9 -5 -1 -16 -6 -28 -12 -28 -6 0 -9
-7 -5 -15 3 -8 1 -15 -4 -15 -10 0 -14 14 -10 40 1 11 -3 9 -13 -4 -15 -20
-27 -25 -89 -33 -21 -3 -42 -11 -49 -19 -6 -8 -19 -14 -29 -14 -10 0 -23 -7
-30 -15 -7 -8 -19 -15 -26 -15 -15 0 -51 -18 -70 -35 -17 -16 -27 -55 -15 -55
6 0 11 -7 11 -15 0 -8 -4 -15 -10 -15 -5 0 -10 -5 -10 -10 0 -6 6 -10 13 -9
37 5 42 -1 42 -47 0 -40 4 -50 35 -76 l35 -30 -28 6 c-19 5 -26 3 -22 -4 3 -5
15 -10 26 -10 14 0 19 -6 18 -17 -5 -30 29 -83 52 -83 12 0 33 -8 47 -19 15
-10 37 -22 50 -25 12 -4 20 -11 17 -16 -7 -12 40 -24 55 -15 7 5 9 -2 4 -21
-5 -19 -4 -25 5 -20 6 4 11 1 11 -8 0 -9 5 -16 10 -16 6 0 10 -9 10 -21 0 -11
5 -17 10 -14 7 4 10 -8 8 -33 -2 -22 -6 -38 -10 -36 -4 2 -9 0 -12 -5 -4 -5
-24 -12 -47 -16 -22 -4 -53 -13 -67 -21 -25 -13 -28 -12 -36 6 -5 11 -17 20
-27 20 -12 0 -16 6 -12 20 8 31 -63 85 -102 77 -13 -2 -29 -1 -36 4 -7 4 -25
-2 -43 -16 -26 -19 -33 -21 -43 -9 -7 7 -13 18 -13 23 0 6 -11 10 -24 9 -14
-1 -23 -5 -20 -9 2 -4 0 -10 -5 -13 -5 -3 -11 1 -15 9 -3 8 -12 15 -21 15 -18
0 -105 -88 -105 -107 0 -7 14 -26 32 -43 36 -35 29 -52 -21 -54 -19 -1 -31 -6
-31 -15 0 -10 8 -12 30 -7 22 4 30 2 30 -9 0 -12 17 -15 88 -16 48 0 112 -4
142 -8 30 -4 88 -5 129 -1 41 4 88 4 104 -1 17 -5 46 -5 66 0 21 4 47 4 61 -1
40 -16 239 -16 297 -1 48 12 59 12 125 -8 66 -20 72 -21 83 -5 8 11 27 16 59
16 l46 0 0 64 0 63 -52 9 c-72 11 -98 12 -98 4 0 -3 -16 -6 -35 -7 -20 -1 -41
-6 -49 -12 -9 -7 -16 -7 -24 1 -8 8 -19 8 -40 -1 -21 -9 -40 -10 -63 -3 -19 5
-51 7 -71 4 l-37 -4 9 31 c5 17 6 31 3 31 -3 0 2 9 12 20 10 11 23 20 29 20
25 0 47 41 40 73 -4 18 -8 59 -9 92 -1 33 -3 72 -4 87 -1 21 -5 26 -17 21 -13
-5 -14 -2 -6 13 49 88 71 146 63 162 -14 26 -29 122 -19 122 4 0 8 11 8 24 0
15 7 26 20 29 11 3 20 12 20 19 0 8 12 20 26 27 32 14 53 -1 74 -54 8 -19 17
-35 20 -35 3 0 5 -18 4 -40 -1 -22 1 -40 5 -40 11 0 2 -111 -11 -137 -13 -26
6 -57 29 -49 7 3 13 -1 13 -9 0 -8 9 -19 20 -25 17 -9 18 -18 14 -63 -3 -28
-8 -55 -10 -59 -2 -3 6 -24 17 -46 18 -33 28 -41 60 -46 22 -3 39 -11 39 -16
0 -6 5 -10 10 -10 7 0 10 232 10 675 l0 675 -900 0 -900 0 0 -500z m960 -644
c0 -24 -17 -28 -23 -6 -3 13 0 20 9 20 8 0 14 -6 14 -14z"/>
<path d="M580 955 c0 -16 6 -25 16 -25 11 0 14 5 10 16 -3 9 -6 20 -6 25 0 5
-4 9 -10 9 -5 0 -10 -11 -10 -25z"/>
<path d="M457 895 c-4 -8 -2 -17 3 -20 6 -4 10 3 10 14 0 25 -6 27 -13 6z"/>
<path d="M335 890 c3 -5 11 -10 16 -10 6 0 7 5 4 10 -3 6 -11 10 -16 10 -6 0
-7 -4 -4 -10z"/>
<path d="M390 880 c0 -5 5 -10 11 -10 5 0 7 5 4 10 -3 6 -8 10 -11 10 -2 0 -4
-4 -4 -10z"/>
<path d="M540 722 c0 -7 -5 -10 -11 -7 -6 4 -9 0 -7 -11 2 -14 -4 -17 -39 -18
-24 0 -43 -4 -43 -8 0 -4 -13 -8 -28 -8 -35 0 -52 -16 -52 -50 1 -31 54 -58
120 -59 45 -1 100 15 100 29 0 4 12 5 26 2 19 -3 25 -1 20 7 -4 6 -3 11 2 11
6 0 9 19 8 41 -3 46 -28 73 -59 63 -11 -4 -23 0 -28 7 -7 11 -9 11 -9 1z"/>
<path d="M788 670 c14 -6 20 -14 16 -22 -5 -8 -2 -9 12 -4 16 6 16 4 -4 -17
-26 -27 -27 -34 -7 -34 8 0 15 8 15 18 0 9 6 19 14 22 7 3 15 14 18 24 5 17
-1 20 -41 21 -38 1 -42 0 -23 -8z"/>
<path d="M860 651 c-7 -15 -7 -21 0 -21 12 0 25 28 17 36 -3 3 -10 -4 -17 -15z"/>
<path d="M891 654 c0 -11 3 -14 6 -6 3 7 2 16 -1 19 -3 4 -6 -2 -5 -13z"/>
<path d="M700 558 c-24 -10 -24 -10 -5 -18 20 -9 20 -9 0 -15 -12 -3 -21 -14
-22 -25 -1 -13 8 -8 38 21 21 21 39 41 39 44 0 8 -22 5 -50 -7z"/>
</g>
</svg>
